HIERARCHY
ROOT hip
{
  OFFSET 0 0 0
  CHANNELS 6 Xposition Yposition Zposition Zrotation Yrotation Xrotation
  JOINT abdomen
  {
    OFFSET 0 20.6881 -0.73152
    CHANNELS 3 Zrotation Xrotation Yrotation
    JOINT chest
    {
      OFFSET 0 11.7043 -0.48768
      CHANNELS 3 Zrotation Xrotation Yrotation
      JOINT neck
      {
        OFFSET 0 22.1894 -2.19456
        CHANNELS 3 Zrotation Xrotation Yrotation
        JOINT head
        {
          OFFSET -0.24384 7.07133 1.2192
          CHANNELS 3 Zrotation Xrotation Yrotation
          JOINT leftEye
          {
            OFFSET 4.14528 8.04674 8.04672
            CHANNELS 3 Zrotation Xrotation Yrotation
            End Site
            {
              OFFSET 1 0 0
            }
          }
          JOINT rightEye
          {
            OFFSET -3.6576 8.04674 8.04672
            CHANNELS 3 Zrotation Xrotation Yrotation
            End Site
            {
              OFFSET 1 0 0
            }
          }
        }
      }
      JOINT rCollar
      {
        OFFSET -2.68224 19.2634 -4.8768
        CHANNELS 3 Zrotation Xrotation Yrotation
        JOINT rShldr
        {
          OFFSET -8.77824 -1.95073 1.46304
          CHANNELS 3 Zrotation Xrotation Yrotation
          JOINT rForeArm
          {
            OFFSET -28.1742 -1.7115 0.48768
            CHANNELS 3 Zrotation Xrotation Yrotation
            JOINT rHand
            {
              OFFSET -22.5879 0.773209 7.07136
              CHANNELS 3 Zrotation Xrotation Yrotation
              JOINT rThumb1
              {
                OFFSET -1.2192 -0.487915 3.41376
                CHANNELS 3 Zrotation Xrotation Yrotation
                JOINT rThumb2
                {
                  OFFSET -3.37035 -0.52449 3.41376
                  CHANNELS 3 Zrotation Xrotation Yrotation
                  End Site
                  {
                    OFFSET -1.78271 -1.18214 1.43049
                  }
                }
              }
              JOINT rIndex1
              {
                OFFSET -7.75947 0.938293 5.60832
                CHANNELS 3 Zrotation Xrotation Yrotation
                JOINT rIndex2
                {
                  OFFSET -2.54057 -0.884171 1.56538
                  CHANNELS 3 Zrotation Xrotation Yrotation
                  End Site
                  {
                    OFFSET -1.62519 -0.234802 1.16502
                  }
                }
              }
              JOINT rMid1
              {
                OFFSET -8.24714 1.18213 3.41376
                CHANNELS 3 Zrotation Xrotation Yrotation
                JOINT rMid2
                {
                  OFFSET -3.10165 -0.590103 1.0647
                  CHANNELS 3 Zrotation Xrotation Yrotation
                  End Site
                  {
                    OFFSET -2.48547 -0.328903 0.83742
                  }
                }
              }
              JOINT rRing1
              {
                OFFSET -8.82822 0.546677 1.51678
                CHANNELS 3 Zrotation Xrotation Yrotation
                JOINT rRing2
                {
                  OFFSET -2.60934 -0.819778 -0.0198488
                  CHANNELS 3 Zrotation Xrotation Yrotation
                  End Site
                  {
                    OFFSET -2.33842 -0.294052 0.168128
                  }
                }
              }
              JOINT rPinky1
              {
                OFFSET -8.27202 -0.0477905 -0.4584
                CHANNELS 3 Zrotation Xrotation Yrotation
                JOINT rPinky2
                {
                  OFFSET -1.82734 -0.647385 -0.700984
                  CHANNELS 3 Zrotation Xrotation Yrotation
                  End Site
                  {
                    OFFSET -1.69225 -0.51767 -0.607171
                  }
                }
              }
            }
          }
        }
      }
      JOINT lCollar
      {
        OFFSET 2.68224 19.2634 -4.8768
        CHANNELS 3 Zrotation Xrotation Yrotation
        JOINT lShldr
        {
          OFFSET 8.77824 -1.95073 1.46304
          CHANNELS 3 Zrotation Xrotation Yrotation
          JOINT lForeArm
          {
            OFFSET 28.1742 -1.7115 0.48768
            CHANNELS 3 Zrotation Xrotation Yrotation
            JOINT lHand
            {
              OFFSET 22.5879 0.773209 7.07136
              CHANNELS 3 Zrotation Xrotation Yrotation
              JOINT lThumb1
              {
                OFFSET 1.2192 -0.487915 3.41376
                CHANNELS 3 Zrotation Xrotation Yrotation
                JOINT lThumb2
                {
                  OFFSET 3.37035 -0.52449 3.41376
                  CHANNELS 3 Zrotation Xrotation Yrotation
                  End Site
                  {
                    OFFSET 1.78271 -1.18214 1.43049
                  }
                }
              }
              JOINT lIndex1
              {
                OFFSET 7.75947 0.938293 5.60832
                CHANNELS 3 Zrotation Xrotation Yrotation
                JOINT lIndex2
                {
                  OFFSET 2.54057 -0.884171 1.56538
                  CHANNELS 3 Zrotation Xrotation Yrotation
                  End Site
                  {
                    OFFSET 1.62519 -0.234802 1.16502
                  }
                }
              }
              JOINT lMid1
              {
                OFFSET 8.24714 1.18213 3.41376
                CHANNELS 3 Zrotation Xrotation Yrotation
                JOINT lMid2
                {
                  OFFSET 3.10165 -0.590103 1.0647
                  CHANNELS 3 Zrotation Xrotation Yrotation
                  End Site
                  {
                    OFFSET 2.48547 -0.328903 0.83742
                  }
                }
              }
              JOINT lRing1
              {
                OFFSET 8.82822 0.546677 1.51678
                CHANNELS 3 Zrotation Xrotation Yrotation
                JOINT lRing2
                {
                  OFFSET 2.60934 -0.819778 -0.0198488
                  CHANNELS 3 Zrotation Xrotation Yrotation
                  End Site
                  {
                    OFFSET 2.33842 -0.294052 0.168128
                  }
                }
              }
              JOINT lPinky1
              {
                OFFSET 8.27202 -0.0477905 -0.4584
                CHANNELS 3 Zrotation Xrotation Yrotation
                JOINT lPinky2
                {
                  OFFSET 1.82734 -0.647385 -0.700984
                  CHANNELS 3 Zrotation Xrotation Yrotation
                  End Site
                  {
                    OFFSET 1.69225 -0.51767 -0.607171
                  }
                }
              }
            }
          }
        }
      }
    }
  }
  JOINT rButtock
  {
    OFFSET -8.77824 4.35084 1.2192
    CHANNELS 3 Zrotation Xrotation Yrotation
    JOINT rThigh
    {
      OFFSET 0 -1.70687 -2.19456
      CHANNELS 3 Zrotation Xrotation Yrotation
      JOINT rShin
      {
        OFFSET 0 -36.8199 0.73152
        CHANNELS 3 Zrotation Xrotation Yrotation
        JOINT rFoot
        {
          OFFSET 0.73152 -45.1104 -5.12064
          CHANNELS 3 Zrotation Xrotation Yrotation
          End Site
          {
            OFFSET -1.1221 -3.69964 12.103
          }
        }
      }
    }
  }
  JOINT lButtock
  {
    OFFSET 8.77824 4.35084 1.2192
    CHANNELS 3 Zrotation Xrotation Yrotation
    JOINT lThigh
    {
      OFFSET 0 -1.70687 -2.19456
      CHANNELS 3 Zrotation Xrotation Yrotation
      JOINT lShin
      {
        OFFSET 0 -36.8199 0.73152
        CHANNELS 3 Zrotation Xrotation Yrotation
        JOINT lFoot
        {
          OFFSET -0.73152 -45.1104 -5.12064
          CHANNELS 3 Zrotation Xrotation Yrotation
          End Site
          {
            OFFSET 1.1221 -3.69964 12.103
          }
        }
      }
    }
  }
}
MOTION
Frames:	4
Frame Time:	0.00833333
-37.9631 83.3424 202.177 -156.566 -80.2691 169.141 3.7968 -19.0564 5.33482 -1.00676 0.64632 1.18096 -25.9818 32.6693 -9.10214 63.6493 -31.5821 -11.7496 -0.0 0.0 0.0 -0.0 0.0 0.0 -8.24062e-15 3.42574e-12 1.59941e-13 84.6905 38.2499 -2.91626 -11.8606 -5.35126 21.3403 -0.846397 25.18 3.78849 -1.92418e-09 -4.34263e-10 -5.96247e-11 -3.32679e-09 -7.52757e-10 -6.31998e-11 -1.92418e-09 -4.34263e-10 -5.9632e-11 7.73091 5.47488 0.417314 -1.92419e-09 -4.34264e-10 -5.96243e-11 2.90554 0.965183 0.102902 -1.92418e-09 -4.34264e-10 -5.96246e-11 10.2786 0.731801 0.0259123 -1.92419e-09 -4.34262e-10 -5.96177e-11 2.22167 -0.733487 -0.20892 -8.26219e-15 3.42575e-12 1.59832e-13 -84.9322 43.6316 8.06051 14.1357 -7.06462 -25.8273 1.7722 -34.9237 5.63112 -4.60012e-11 9.29125e-12 -1.06551e-09 -5.2707e-11 1.11965e-11 -1.8434e-09 -4.60074e-11 9.29132e-12 -1.0655e-09 -7.73091 5.47488 -0.417314 -4.59977e-11 9.28963e-12 -1.06552e-09 -2.90554 0.965183 -0.102902 -4.60084e-11 9.28983e-12 -1.06551e-09 -10.2786 0.731801 -0.0259123 -4.59996e-11 9.28983e-12 -1.06552e-09 -2.22167 -0.733487 0.20892 -2.03217e-16 0.0 -3.88251e-19 1.01227 -13.4101 -6.34743 -0.0134259 8.52328 0.107102 2.3579 -10.2307 13.5807 2.03217e-16 0.0 3.88251e-19 6.9138 -16.5592 4.55636 0.0503847 11.9901 -0.170823 -1.11183 -9.74588 -6.63991
-37.9576 83.3408 202.172 -156.459 -80.2574 169.015 3.81317 -19.0537 5.30602 -0.973389 0.661119 1.17253 -25.9818 32.6627 -9.14963 63.4938 -31.5263 -11.9067 -0.0 0.0 0.0 -0.0 0.0 0.0 -6.11758e-14 1.42308e-12 5.28877e-15 84.6121 38.4053 -2.84248 -11.8479 -5.34256 21.316 -0.852969 25.2695 3.80388 -1.00545e-09 -2.0204e-10 2.20852e-11 -1.73863e-09 -3.50235e-10 5.84237e-11 -1.00545e-09 -2.0204e-10 2.20766e-11 7.73091 5.47488 0.417314 -1.00545e-09 -2.02042e-10 2.20855e-11 2.90554 0.965183 0.102902 -1.00544e-09 -2.02041e-10 2.20823e-11 10.2786 0.731801 0.0259123 -1.00545e-09 -2.0204e-10 2.20857e-11 2.22167 -0.733487 -0.20892 -6.1221e-14 1.42309e-12 5.15559e-15 -84.9475 43.8835 7.98736 14.082 -7.02087 -25.719 1.72438 -34.5205 5.54695 2.04766e-10 -2.79899e-11 -5.58619e-10 3.67299e-10 -4.929e-11 -9.60605e-10 2.04763e-10 -2.79898e-11 -5.5861e-10 -7.73091 5.47488 -0.417314 2.04773e-10 -2.79909e-11 -5.5864e-10 -2.90554 0.965183 -0.102902 2.04762e-10 -2.79905e-11 -5.58623e-10 -10.2786 0.731801 -0.0259123 2.0477e-10 -2.79893e-11 -5.58631e-10 -2.22167 -0.733487 0.20892 -2.03217e-16 0.0 -3.88251e-19 1.03778 -13.3861 -6.33821 -0.0132867 8.51037 0.10703 2.3553 -10.2268 13.583 2.03217e-16 0.0 3.88251e-19 6.93974 -16.5529 4.56734 0.0505987 12.0134 -0.171192 -1.11615 -9.76233 -6.64467
-37.9534 83.3394 202.167 -156.317 -80.2467 168.856 3.83077 -19.0555 5.28632 -0.948559 0.679329 1.16627 -25.9507 32.6603 -9.20241 63.3305 -31.4852 -12.0622 -0.0 0.0 0.0 -0.0 0.0 0.0 -1.18844e-13 -1.23996e-13 -1.31496e-13 84.5292 38.5797 -2.76401 -11.8334 -5.33253 21.288 -0.857075 25.3249 3.81345 -4.13468e-10 -1.2497e-10 3.20508e-10 -7.10172e-10 -2.15419e-10 5.61123e-10 -4.13468e-10 -1.2497e-10 3.20498e-10 7.73091 5.47488 0.417314 -4.13468e-10 -1.24973e-10 3.20508e-10 2.90554 0.965183 0.102902 -4.13463e-10 -1.24973e-10 3.20503e-10 10.2786 0.731801 0.0259123 -4.13474e-10 -1.24972e-10 3.20504e-10 2.22167 -0.733487 -0.20892 -1.1891e-13 -1.23987e-13 -1.31645e-13 -84.946 44.159 7.9079 14.0363 -6.9838 -25.6272 1.68624 -34.1912 5.47894 4.88865e-10 -4.10578e-11 -4.63874e-10 8.54322e-10 -6.98831e-11 -7.88714e-10 4.88863e-10 -4.10578e-11 -4.63865e-10 -7.73091 5.47488 -0.417314 4.88872e-10 -4.10584e-11 -4.639e-10 -2.90554 0.965183 -0.102902 4.88862e-10 -4.10578e-11 -4.63878e-10 -10.2786 0.731801 -0.0259123 4.8887e-10 -4.10558e-11 -4.63887e-10 -2.22167 -0.733487 0.20892 -2.03217e-16 0.0 -3.88251e-19 1.06345 -13.3621 -6.33172 -0.0133778 8.49262 0.106917 2.35168 -10.2197 13.5875 2.03217e-16 0.0 3.88251e-19 6.96717 -16.5514 4.58147 0.0508523 12.0389 -0.171598 -1.12167 -9.77895 -6.65515
-37.949 83.3381 202.163 -156.18 -80.2374 168.705 3.8516 -19.0636 5.27967 -0.936441 0.702815 1.16286 -25.8688 32.6654 -9.26335 63.1467 -31.4685 -12.2153 -0.0 0.0 0.0 -0.0 0.0 0.0 -1.99514e-13 -1.06537e-12 -2.61605e-13 84.4414 38.7918 -2.68083 -11.8184 -5.3221 21.2589 -0.857118 25.3254 3.81354 -2.12875e-10 -2.93998e-10 1.10019e-09 -3.47435e-10 -5.04697e-10 1.90296e-09 -2.12875e-10 -2.93999e-10 1.10018e-09 7.73091 5.47488 0.417314 -2.12874e-10 -2.94001e-10 1.10019e-09 2.90554 0.965183 0.102902 -2.1287e-10 -2.94002e-10 1.10018e-09 10.2786 0.731801 0.0259123 -2.12882e-10 -2.94001e-10 1.10019e-09 2.22167 -0.733487 -0.20892 -1.99598e-13 -1.06536e-12 -2.61757e-13 -84.9211 44.4626 7.81849 14.0008 -6.9551 -25.5559 1.66107 -33.971 5.43375 9.21891e-10 -1.73013e-11 -1.03886e-09 1.61358e-09 -2.96466e-11 -1.76935e-09 9.21889e-10 -1.73016e-11 -1.03885e-09 -7.73091 5.47488 -0.417314 9.21897e-10 -1.73017e-11 -1.03888e-09 -2.90554 0.965183 -0.102902 9.21887e-10 -1.7301e-11 -1.03886e-09 -10.2786 0.731801 -0.0259123 9.21895e-10 -1.72986e-11 -1.03887e-09 -2.22167 -0.733487 0.20892 -2.03217e-16 0.0 -3.88251e-19 1.09198 -13.3348 -6.3278 -0.0138918 8.46409 0.106704 2.34594 -10.2064 13.5957 2.03217e-16 0.0 3.88251e-19 6.99886 -16.5553 4.60052 0.051173 12.0678 -0.172073 -1.12882 -9.79682 -6.67216
